<svg viewBox="0 0 15 12" fill="#000" xmlns="http://www.w3.org/2000/svg">
<path d="M0.750005 6.75006L12.4396 6.75006L8.46981 10.7198C8.17693 11.0127 8.17693 11.4875 8.46981 11.7803C8.76269 12.0732 9.23763 12.0732 9.5305 11.7803L14.7805 6.53031C15.0734 6.23743 15.0734 5.76249 14.7805 5.4698L9.5305 0.219763C9.38406 0.0733241 9.19206 1.16832e-05 9.00006 1.16832e-05C8.80825 1.16832e-05 8.61625 0.0733241 8.46981 0.219763C8.17693 0.51264 8.17693 0.987581 8.46981 1.28027L12.4396 5.25005L0.750005 5.25005C0.336002 5.25005 0 5.58586 0 6.00005C0 6.41424 0.335815 6.75006 0.750005 6.75006Z" />
</svg>
