<svg width="14" height="13" viewBox="0 0 14 13" fill="none" xmlns="http://www.w3.org/2000/svg">
<g clip-path="url(#clip0_115_16)">
<path d="M13.009 5.30693C12.9761 5.12941 12.823 4.99941 12.6425 4.99557C12.4622 4.99249 12.3037 5.1152 12.2633 5.29121C11.8759 6.9796 10.3935 8.15882 8.65839 8.15882C6.61899 8.15882 4.95981 6.49964 4.95981 4.46027C4.95981 2.7252 6.13903 1.24282 7.82748 0.85541C8.00343 0.815039 8.12686 0.656704 8.1231 0.476227C8.11932 0.29575 7.98932 0.142696 7.81184 0.109738C7.41963 0.0369179 7.01818 0 6.61865 0C4.88244 0 3.25016 0.676127 2.02244 1.90382C0.794754 3.13151 0.118652 4.76379 0.118652 6.5C0.118652 8.23622 0.794754 9.8685 2.02244 11.0962C3.25016 12.3239 4.88244 13 6.61865 13C8.35487 13 9.98715 12.3239 11.2149 11.0962C12.4425 9.8685 13.1187 8.23622 13.1187 6.5C13.1187 6.10081 13.0817 5.69941 13.009 5.30693Z" fill="#DFDFDF"/>
</g>
<defs>
<clipPath id="clip0_115_16">
<rect width="13" height="13" fill="white" transform="translate(0.118652)"/>
</clipPath>
</defs>
</svg>
