<svg width="29" height="31" viewBox="0 0 29 31" fill="#A70000" xmlns="http://www.w3.org/2000/svg">
<path d="M23.4115 9.43119C23.4115 9.16376 23.6144 8.9468 23.8646 8.9468C24.1147 8.9468 24.3178 9.16474 24.3178 9.43119V28.0131C24.3178 28.8334 24.0024 29.5802 23.4964 30.1221C22.9905 30.663 22.2909 31 21.5235 31H7.47659C6.70911 31 6.00866 30.663 5.50359 30.1221C4.99761 29.5812 4.68231 28.8345 4.68231 28.0131V9.43119C4.68231 9.16376 4.88528 8.9468 5.13541 8.9468C5.38558 8.9468 5.58855 9.16474 5.58855 9.43119V28.0131C5.58855 28.5661 5.80192 29.0716 6.14364 29.4369C6.48536 29.8022 6.95833 30.0312 7.47564 30.0312H21.5226C22.0399 30.0312 22.5118 29.8021 22.8536 29.4369C23.1963 29.0706 23.4096 28.566 23.4096 28.014V9.43119H23.4115Z" />
<path d="M11.1204 26.7617C11.1204 27.0292 10.9175 27.2461 10.6673 27.2461C10.4171 27.2461 10.2142 27.0292 10.2142 26.7617V9.55632C10.2142 9.2889 10.4171 9.07193 10.6673 9.07193C10.9175 9.07193 11.1204 9.2889 11.1204 9.55632V26.7617Z" />
<path d="M14.9531 26.7617C14.9531 27.0292 14.7502 27.2461 14.5 27.2461C14.2499 27.2461 14.0469 27.0292 14.0469 26.7617V9.55632C14.0469 9.2889 14.2499 9.07193 14.5 9.07193C14.7502 9.07193 14.9531 9.2889 14.9531 9.55632V26.7617Z" />
<path d="M18.7868 26.7617C18.7868 27.0292 18.5839 27.2461 18.3337 27.2461C18.0835 27.2461 17.8806 27.0292 17.8806 26.7617V9.55632C17.8806 9.2889 18.0835 9.07193 18.3337 9.07193C18.5839 9.07193 18.7868 9.2889 18.7868 9.55632V26.7617Z" />
<path d="M10.8561 2.98698C10.8561 3.25441 10.6532 3.47137 10.403 3.47137C10.1529 3.47137 9.94989 3.25441 9.94989 2.98698C9.94989 2.16454 10.2642 1.41782 10.7703 0.876943C11.2762 0.336021 11.9748 0 12.7442 0H16.2559C17.0243 0 17.7229 0.337041 18.2288 0.877919C18.7348 1.4188 19.0501 2.16755 19.0501 2.98698C19.0501 3.25441 18.8472 3.47137 18.597 3.47137C18.3469 3.47137 18.1439 3.25441 18.1439 2.98698C18.1439 2.434 17.9306 1.92842 17.5888 1.56313C17.247 1.1978 16.7742 0.968731 16.2569 0.968731H12.7452C12.2269 0.968731 11.7549 1.19678 11.4122 1.56211C11.0695 1.92842 10.8561 2.43298 10.8561 2.98698Z" />
<path d="M3.96481 4.37953H25.0352C25.4797 4.37953 25.8857 4.57428 26.1802 4.88915L26.1821 4.89119C26.4767 5.20601 26.6588 5.63994 26.6588 6.11524V7.36655C26.6588 7.63394 26.4559 7.8509 26.2057 7.8509H26.1934H2.79426C2.54409 7.8509 2.34113 7.63394 2.34113 7.36655V7.35445V6.11524C2.34113 5.64096 2.52331 5.20601 2.81786 4.89119L2.81977 4.88915C3.11429 4.57432 3.52113 4.37953 3.96481 4.37953ZM25.0352 5.3483H3.96481C3.76753 5.3483 3.58721 5.4341 3.45883 5.57232L3.45692 5.57436C3.32758 5.71155 3.24736 5.90333 3.24736 6.11524V6.88217H25.7517V6.11524C25.7517 5.90435 25.6714 5.71159 25.5421 5.57436L25.5402 5.57232C25.4119 5.4341 25.2325 5.3483 25.0352 5.3483Z" />
</svg>
