<svg viewBox="0 0 31 31" fill="none" xmlns="http://www.w3.org/2000/svg">
<g clip-path="url(#clip0_44_889)">
<path d="M15.7698 3.59741C19.7427 3.59741 20.2131 3.61499 21.7755 3.6853C23.2276 3.74976 24.0117 3.99585 24.5344 4.20093C25.2256 4.47046 25.7251 4.79858 26.242 5.32007C26.7648 5.84741 27.0842 6.34546 27.3514 7.04272C27.5547 7.57007 27.7986 8.36694 27.8625 9.82593C27.9322 11.408 27.9496 11.8826 27.9496 15.8845C27.9496 19.8923 27.9322 20.3669 27.8625 21.9431C27.7986 23.408 27.5547 24.199 27.3514 24.7263C27.0842 25.4236 26.7589 25.9275 26.242 26.449C25.7193 26.9763 25.2256 27.2986 24.5344 27.5681C24.0117 27.7732 23.2218 28.0193 21.7755 28.0837C20.2073 28.154 19.7368 28.1716 15.7698 28.1716C11.797 28.1716 11.3266 28.154 9.76418 28.0837C8.31213 28.0193 7.52802 27.7732 7.00529 27.5681C6.31411 27.2986 5.81461 26.9705 5.29768 26.449C4.77494 25.9216 4.45549 25.4236 4.18831 24.7263C3.98503 24.199 3.74108 23.4021 3.67719 21.9431C3.6075 20.3611 3.59007 19.8865 3.59007 15.8845C3.59007 11.8767 3.6075 11.4021 3.67719 9.82593C3.74108 8.36108 3.98503 7.57007 4.18831 7.04272C4.45549 6.34546 4.78075 5.84155 5.29768 5.32007C5.82042 4.79272 6.31411 4.47046 7.00529 4.20093C7.52802 3.99585 8.31794 3.74976 9.76418 3.6853C11.3266 3.61499 11.797 3.59741 15.7698 3.59741ZM15.7698 0.89624C11.7332 0.89624 11.2278 0.913818 9.64221 0.984131C8.06238 1.05444 6.97625 1.31226 6.03532 1.6814C5.05374 2.06811 4.22316 2.57788 3.3984 3.41577C2.56783 4.2478 2.06252 5.08569 1.67918 6.07007C1.31326 7.02515 1.0577 8.11499 0.988002 9.70874C0.918303 11.3142 0.900879 11.824 0.900879 15.8962C0.900879 19.9685 0.918303 20.4783 0.988002 22.0779C1.0577 23.6716 1.31326 24.7673 1.67918 25.7165C2.06252 26.7068 2.56783 27.5447 3.3984 28.3767C4.22316 29.2087 5.05374 29.7244 6.02951 30.1052C6.97625 30.4744 8.05657 30.7322 9.6364 30.8025C11.222 30.8728 11.7273 30.8904 15.764 30.8904C19.8007 30.8904 20.306 30.8728 21.8917 30.8025C23.4715 30.7322 24.5576 30.4744 25.4986 30.1052C26.4743 29.7244 27.3049 29.2087 28.1297 28.3767C28.9544 27.5447 29.4656 26.7068 29.8431 25.7224C30.209 24.7673 30.4646 23.6775 30.5343 22.0837C30.604 20.4841 30.6214 19.9744 30.6214 15.9021C30.6214 11.8298 30.604 11.3201 30.5343 9.72046C30.4646 8.12671 30.209 7.031 29.8431 6.08179C29.4772 5.08569 28.9719 4.2478 28.1413 3.41577C27.3165 2.58374 26.486 2.06812 25.5102 1.68726C24.5634 1.31812 23.4831 1.0603 21.9033 0.98999C20.3119 0.913818 19.8065 0.89624 15.7698 0.89624Z" fill="white"/>
<path d="M15.7696 8.19098C11.5529 8.19098 8.13187 11.6421 8.13187 15.8961C8.13187 20.15 11.5529 23.6011 15.7696 23.6011C19.9864 23.6011 23.4074 20.15 23.4074 15.8961C23.4074 11.6421 19.9864 8.19098 15.7696 8.19098ZM15.7696 20.8941C13.034 20.8941 10.8153 18.6558 10.8153 15.8961C10.8153 13.1363 13.034 10.898 15.7696 10.898C18.5053 10.898 20.724 13.1363 20.724 15.8961C20.724 18.6558 18.5053 20.8941 15.7696 20.8941Z" fill="white"/>
<path d="M25.4927 7.88678C25.4927 8.88288 24.6912 9.68561 23.7096 9.68561C22.7222 9.68561 21.9265 8.87702 21.9265 7.88678C21.9265 6.89069 22.728 6.08795 23.7096 6.08795C24.6912 6.08795 25.4927 6.89655 25.4927 7.88678Z" fill="white"/>
</g>
<defs>
<clipPath id="clip0_44_889">
<rect width="29.7379" height="30" fill="white" transform="translate(0.900879 0.89624)"/>
</clipPath>
</defs>
</svg>
