<svg width="14" height="13" viewBox="0 0 14 13" fill="none" xmlns="http://www.w3.org/2000/svg">
<g clip-path="url(#clip0_115_28)">
<path d="M11.0105 1.90351L9.91434 2.99971C10.1141 3.1409 10.3019 3.29807 10.4764 3.47389C10.6509 3.64971 10.8094 3.83618 10.9506 4.03598L12.0468 2.93977C12.3332 2.6534 12.3332 2.18987 12.0468 1.90351C11.7604 1.61713 11.2969 1.61713 11.0105 1.90351Z" fill="#FFDC23"/>
<path d="M3.9499 8.96295L2.8537 10.0592C2.56732 10.3455 2.56732 10.8091 2.8537 11.0954C2.99621 11.238 3.18402 11.3099 3.37183 11.3099C3.55963 11.3099 3.74745 11.238 3.88996 11.0954L4.98618 9.99922C4.78638 9.85803 4.59857 9.70086 4.42409 9.52504C4.2496 9.34922 4.09109 9.16274 3.9499 8.96295Z" fill="#FFDC23"/>
<path d="M10.9506 8.96295C10.8094 9.16274 10.6523 9.35055 10.4764 9.52504C10.3006 9.69953 10.1141 9.85803 9.91434 9.99922L11.0105 11.0954C11.1531 11.238 11.3409 11.3099 11.5287 11.3099C11.7165 11.3099 11.9043 11.238 12.0468 11.0954C12.3332 10.8091 12.3332 10.3455 12.0468 10.0592L10.9506 8.96295Z" fill="#FFDC23"/>
<path d="M3.9499 4.03598C4.09109 3.83618 4.24826 3.64838 4.42409 3.47389C4.5999 3.2994 4.78638 3.1409 4.98618 2.99971L3.88996 1.90351C3.60359 1.61713 3.14007 1.61713 2.8537 1.90351C2.56732 2.18987 2.56732 2.6534 2.8537 2.93977L3.9499 4.03598Z" fill="#FFDC23"/>
<path d="M3.17058 6.50004C3.17058 6.25229 3.19189 6.00721 3.23319 5.76746H1.68278C1.27786 5.76746 0.950195 6.09513 0.950195 6.50004C0.950195 6.90496 1.27786 7.23262 1.68278 7.23262H3.23319C3.19189 6.99154 3.17058 6.7478 3.17058 6.50004Z" fill="#FFDC23"/>
<path d="M13.2175 5.76746H11.6671C11.7084 6.00721 11.7297 6.25229 11.7297 6.50004C11.7297 6.7478 11.7084 6.99287 11.6671 7.23262H13.2175C13.6224 7.23262 13.9501 6.90496 13.9501 6.50004C13.9501 6.09513 13.6224 5.76746 13.2175 5.76746Z" fill="#FFDC23"/>
<path d="M6.71759 10.717V12.2674C6.71759 12.6722 7.04526 12.9999 7.45017 12.9999C7.85509 12.9999 8.18276 12.6722 8.18276 12.2674V10.717C7.943 10.7583 7.69792 10.7796 7.45017 10.7796C7.20243 10.7796 6.95734 10.7583 6.71759 10.717Z" fill="#FFDC23"/>
<path d="M6.71759 0.732583V2.28299C6.95734 2.2417 7.20243 2.22039 7.45017 2.22039C7.69792 2.22039 7.943 2.2417 8.18276 2.28299V0.732583C8.18276 0.327664 7.85509 0 7.45017 0C7.04526 0 6.71759 0.327664 6.71759 0.732583Z" fill="#FFDC23"/>
<path d="M10.8534 7.23241C10.904 6.99665 10.9307 6.75157 10.9307 6.49982C10.9307 6.2481 10.904 6.00301 10.8534 5.76724C10.7642 5.34902 10.599 4.95874 10.3753 4.6111C10.1075 4.19685 9.75324 3.84256 9.33898 3.57482C8.99134 3.34973 8.60109 3.1859 8.18284 3.09532C7.94707 3.04471 7.702 3.01807 7.45025 3.01807C7.19851 3.01807 6.95343 3.04471 6.71767 3.09532C6.29943 3.18456 5.90917 3.34973 5.56153 3.57482C5.14727 3.84256 4.79298 4.19685 4.52525 4.6111C4.30015 4.95874 4.13632 5.34901 4.04708 5.76724C3.99646 6.00301 3.96982 6.2481 3.96982 6.49982C3.96982 6.75157 3.99646 6.99665 4.04708 7.23241C4.13632 7.65065 4.30148 8.04091 4.52525 8.38856C4.79298 8.80282 5.14728 9.1571 5.56153 9.42485C5.90917 9.64993 6.29942 9.81376 6.71767 9.90435C6.95343 9.95496 7.19851 9.9816 7.45025 9.9816C7.702 9.9816 7.94707 9.95496 8.18284 9.90435C8.60107 9.81511 8.99134 9.64993 9.33898 9.42485C9.75324 9.1571 10.1075 8.80282 10.3753 8.38856C10.599 8.0396 10.7642 7.64932 10.8534 7.23241Z" fill="#FFDC23"/>
</g>
<defs>
<clipPath id="clip0_115_28">
<rect width="13" height="13" fill="white" transform="translate(0.950195)"/>
</clipPath>
</defs>
</svg>
