<svg viewBox="0 0 81 81" fill="none" xmlns="http://www.w3.org/2000/svg">
<g clip-path="url(#clip0_44_1332)">
<path d="M69.1523 11.8515C53.3524 -3.95002 27.6461 -3.95002 11.8492 11.8477C-3.95075 27.6453 -3.94923 53.3523 11.8507 69.1531C27.6461 84.95 53.3524 84.95 69.1508 69.15C84.9492 53.3523 84.9485 27.6469 69.1523 11.8515ZM64.7311 64.7319C51.3705 78.0925 29.6303 78.094 16.2689 64.7334C2.90521 51.3705 2.90674 29.628 16.2689 16.2673C29.6295 2.90748 51.369 2.90595 64.7326 16.2689C78.0933 29.6295 78.0917 51.372 64.7311 64.7319ZM58.8199 56.5165C59.3224 57.6781 58.7878 59.0261 57.6269 59.5278C56.4653 60.0319 55.1173 59.4958 54.6148 58.3349C52.4053 53.2263 47.1837 49.9247 41.3099 49.9247C35.3009 49.9247 30.0473 53.2233 27.9279 58.3288C27.5621 59.2101 26.709 59.7424 25.8116 59.7424C25.5184 59.7424 25.2213 59.6859 24.9334 59.5668C23.7649 59.0811 23.2112 57.74 23.6961 56.5722C26.5295 49.7506 33.4443 45.3432 41.3099 45.3432C49.0113 45.3432 55.8849 49.7285 58.8199 56.5165ZM25.3862 29.534C25.3862 26.919 27.5071 24.7982 30.1221 24.7982C32.7363 24.7982 34.8572 26.9183 34.8572 29.534C34.8572 32.1506 32.7363 34.2707 30.1221 34.2707C27.5071 34.2707 25.3862 32.1506 25.3862 29.534ZM46.8599 29.534C46.8599 26.919 48.9823 24.7982 51.5973 24.7982C54.2115 24.7982 56.3324 26.9183 56.3324 29.534C56.3324 32.1506 54.2123 34.2707 51.5973 34.2707C48.9823 34.2707 46.8599 32.1506 46.8599 29.534Z" fill="#DC4444"/>
</g>
<defs>
<clipPath id="clip0_44_1332">
<rect width="81" height="81" fill="white"/>
</clipPath>
</defs>
</svg>
