<svg width="25" height="25" viewBox="0 0 25 25" fill="none" xmlns="http://www.w3.org/2000/svg">
<path d="M10.0809 0C12.8647 0 15.3846 1.10026 17.2088 2.87923C19.0331 4.6582 20.1614 7.11568 20.1614 9.83032C20.1614 12.4363 19.1216 14.8049 17.4248 16.5641C17.4556 16.5863 17.4855 16.6109 17.5136 16.6382L24.7709 23.7054C24.9156 23.8474 24.9967 24.0394 24.9967 24.2395C24.9966 24.4396 24.9154 24.6315 24.7707 24.7734C24.6261 24.9153 24.4297 24.9956 24.2245 24.9968C24.0193 24.9979 23.822 24.9199 23.6756 24.7797L16.4183 17.7124C16.3733 17.6687 16.3338 17.6199 16.3009 17.5669C14.5276 18.9266 12.3364 19.6642 10.0807 19.6608C7.29692 19.6608 4.77664 18.5606 2.95236 16.7816C1.12828 15.0026 0 12.545 0 9.83032C0 7.11568 1.12828 4.6582 2.95257 2.87923C4.77685 1.10046 7.29713 0 10.0809 0ZM16.0818 3.97847C14.5461 2.48088 12.4245 1.55457 10.0809 1.55457C7.73734 1.55457 5.61555 2.48088 4.07981 3.97847C2.54406 5.47607 1.59416 7.54496 1.59416 9.83032C1.59416 12.1157 2.54406 14.1848 4.07981 15.6824C5.61534 17.18 7.73713 18.1063 10.0809 18.1063C12.4245 18.1063 14.5461 17.18 16.0818 15.6824C17.6175 14.185 18.5674 12.1159 18.5674 9.83032C18.5674 7.54496 17.6175 5.47607 16.0818 3.97847V3.97847Z" fill="black"/>
</svg>
