<svg width="31" height="31" viewBox="0 0 31 31" fill="none" xmlns="http://www.w3.org/2000/svg">
<g clip-path="url(#clip0_44_896)">
<path fill-rule="evenodd" clip-rule="evenodd" d="M30.6388 15.8965C30.6388 24.1808 23.9818 30.8965 15.7698 30.8965C7.55794 30.8965 0.900879 24.1808 0.900879 15.8965C0.900879 7.61221 7.55794 0.896484 15.7698 0.896484C23.9818 0.896484 30.6388 7.61221 30.6388 15.8965ZM16.3027 11.9702C14.8565 12.5771 11.966 13.833 7.63143 15.7382C6.92756 16.0206 6.55884 16.2968 6.52527 16.5669C6.46855 17.0234 7.03521 17.2032 7.80686 17.448C7.91183 17.4813 8.02058 17.5158 8.13208 17.5523C8.89126 17.8013 9.9125 18.0925 10.4434 18.1041C10.925 18.1146 11.4625 17.9143 12.0559 17.5032C16.1058 14.7453 18.1964 13.3513 18.3277 13.3213C18.4203 13.3001 18.5486 13.2734 18.6356 13.3514C18.7225 13.4293 18.7139 13.577 18.7047 13.6166C18.6486 13.858 16.4242 15.9442 15.2731 17.0238C14.9143 17.3603 14.6597 17.5991 14.6077 17.6536C14.4911 17.7757 14.3723 17.8913 14.2581 18.0023C13.5528 18.6882 13.0239 19.2026 14.2874 20.0425C14.8946 20.4462 15.3805 20.78 15.8652 21.113C16.3946 21.4767 16.9226 21.8394 17.6057 22.2911C17.7797 22.4062 17.946 22.5258 18.1079 22.6422C18.7239 23.0853 19.2774 23.4833 19.9611 23.4198C20.3585 23.383 20.7689 23.0061 20.9773 21.882C21.4699 19.2255 22.4381 13.4696 22.6619 11.0978C22.6815 10.89 22.6568 10.624 22.637 10.5073C22.6172 10.3905 22.5758 10.2242 22.4254 10.1011C22.2473 9.95523 21.9722 9.92447 21.8492 9.92666C21.29 9.9366 20.432 10.2376 16.3027 11.9702Z" fill="white"/>
</g>
<defs>
<clipPath id="clip0_44_896">
<rect x="0.900879" y="0.896484" width="29.7379" height="30" fill="white"/>
</clipPath>
</defs>
</svg>
