<svg width="32" height="30" viewBox="0 0 32 30" fill="none" xmlns="http://www.w3.org/2000/svg">
<path d="M29.7615 10.2929C29.7615 10.2929 29.4876 8.34259 28.6442 7.48622C27.5763 6.35912 26.3823 6.3536 25.8347 6.2873C21.9133 6 16.0259 6 16.0259 6H16.0149C16.0149 6 10.1274 6 6.20612 6.2873C5.65845 6.3536 4.46452 6.35912 3.39656 7.48622C2.55315 8.34259 2.28479 10.2929 2.28479 10.2929C2.28479 10.2929 2 12.5858 2 14.8731V17.0168C2 19.3042 2.27931 21.597 2.27931 21.597C2.27931 21.597 2.55315 23.5473 3.39109 24.4037C4.45905 25.5308 5.86109 25.4921 6.48543 25.6137C8.73088 25.8292 16.0204 25.8955 16.0204 25.8955C16.0204 25.8955 21.9133 25.8844 25.8347 25.6026C26.3823 25.5363 27.5763 25.5308 28.6442 24.4037C29.4876 23.5473 29.7615 21.597 29.7615 21.597C29.7615 21.597 30.0408 19.3097 30.0408 17.0168V14.8731C30.0408 12.5858 29.7615 10.2929 29.7615 10.2929ZM13.1232 19.6191V11.6686L20.6975 15.6577L13.1232 19.6191Z" fill="white"/>
</svg>
